<?xml version="1.0" encoding="UTF-8" standalone="no"?>
<!-- Created with Inkscape (http://www.inkscape.org/) -->

<svg
   width="199.36514mm"
   height="56.421867mm"
   viewBox="0 0 199.36514 56.421867"
   version="1.1"
   id="svg1"
   xml:space="preserve"
   sodipodi:docname="JADE_Logo.svg"
   inkscape:version="1.4 (e7c3feb100, 2024-10-09)"
   xmlns:inkscape="http://www.inkscape.org/namespaces/inkscape"
   xmlns:sodipodi="http://sodipodi.sourceforge.net/DTD/sodipodi-0.dtd"
   xmlns="http://www.w3.org/2000/svg"
   xmlns:svg="http://www.w3.org/2000/svg"><sodipodi:namedview
     id="namedview1"
     pagecolor="#ffffff"
     bordercolor="#000000"
     borderopacity="0.25"
     inkscape:showpageshadow="2"
     inkscape:pageopacity="0.0"
     inkscape:pagecheckerboard="0"
     inkscape:deskcolor="#d1d1d1"
     inkscape:document-units="mm"
     inkscape:zoom="1.5190795"
     inkscape:cx="340.99597"
     inkscape:cy="111.58073"
     inkscape:window-width="2304"
     inkscape:window-height="1368"
     inkscape:window-x="0"
     inkscape:window-y="0"
     inkscape:window-maximized="1"
     inkscape:current-layer="svg1" /><defs
     id="defs1" /><g
     id="layer1"
     transform="translate(-3.0625825,-102.64663)"
     style="display:inline"><path
       style="font-size:47.2771px;font-family:Neuropolitical;-inkscape-font-specification:'Neuropolitical, Normal';stroke-width:0.246235"
       d="m 55.378975,140.41489 c 9.597252,0 12.386601,-2.93118 12.386601,-11.06284 V 108.1719 h -7.18612 v 20.84921 c 0,3.78216 -1.13465,5.24775 -5.767806,5.24775 h -7.800721 v 6.14603 z m 53.423105,0 h 8.32077 L 98.495669,110.63031 c -1.13465,-1.8438 -2.505686,-3.16756 -5.389589,-3.16756 -2.93118,0 -4.302216,1.32376 -5.436866,3.16756 l -18.721732,29.78458 h 8.273493 l 4.585878,-7.42251 h 22.314787 z m -15.837831,-25.67147 7.800721,12.71754 H 85.163527 Z m 52.855791,25.67147 c 9.59725,0 12.3866,-2.93118 12.3866,-11.06284 v -10.1173 c 0,-8.13167 -2.78935,-11.06285 -12.3866,-11.06285 h -25.52963 v 32.24299 z m 5.20048,-11.29923 c 0,4.06583 -1.60742,5.1532 -5.48414,5.1532 H 127.47652 V 114.3652 h 18.05986 c 4.25494,0 5.48414,1.22921 5.48414,5.20049 z m 47.08804,11.29923 v -6.09875 h -22.5039 c -4.20767,0 -5.15321,-1.0401 -5.15321,-4.91682 v -2.2693 h 27.468 v -5.72053 h -27.468 v -2.17474 c 0,-3.7349 0.99282,-4.9641 5.15321,-4.9641 h 7.94255 v -6.09875 h -7.94255 c -9.5027,0 -12.29205,2.93118 -12.29205,11.06285 v 10.1173 c 0,8.13166 2.78935,11.06284 12.29205,11.06284 z"
       id="text1"
       aria-label="JADE" /><path
       d="m 125.78298,155.31128 v -6.50786 h 3.37795 v -1.54724 h -8.56298 v 1.54724 h 3.37795 v 6.50786 z m 6.10629,0 v -6.23621 H 130.094 v 6.23621 z m -0.61417,-6.7677 c 0.44881,0 0.61417,-0.16536 0.61417,-0.54331 v -0.68504 c 0,-0.37795 -0.16536,-0.53149 -0.61417,-0.53149 h -0.57874 c -0.43701,0 -0.60236,0.15354 -0.60236,0.53149 v 0.68504 c 0,0.37795 0.16535,0.54331 0.60236,0.54331 z m 10.28738,4.21652 v -2.10235 c 0,-1.01575 -0.50787,-1.74803 -2.33858,-1.74803 h -3.09448 c -2.2559,0 -2.9055,0.62598 -2.9055,2.49212 v 1.47637 c 0,1.70079 0.79133,2.43307 2.82282,2.43307 h 2.07874 v -1.33464 h -2.07874 c -0.82677,0 -1.06299,-0.14174 -1.06299,-0.92126 v -0.29528 z m -1.75984,-1.13385 h -4.81889 v -0.34252 c 0,-0.92126 0.28347,-1.01575 1.16929,-1.01575 h 2.92913 c 0.5315,0 0.72047,0.1063 0.72047,0.5315 z m 4.73622,3.68503 v -3.69684 c 0,-1.01575 0.30709,-1.27559 1.2874,-1.27559 h 1.09843 v -1.42913 h -1.14567 c -2.16141,0 -2.99999,0.77952 -2.99999,2.69291 v 3.70865 z m 17.62201,0 v -1.52362 h -7.97242 v -0.9685 c 0,-0.70866 0.22441,-0.90945 0.95669,-0.90945 h 4.68897 c 1.77165,0 2.32676,-0.47244 2.32676,-1.97244 v -0.40157 c 0,-1.65354 -0.69684,-2.27952 -2.27952,-2.27952 h -3.07086 v 1.52362 h 2.95275 c 0.57874,0 0.74409,0.17716 0.74409,0.80314 v 0.20079 c 0,0.59055 -0.16535,0.76772 -0.79133,0.76772 h -4.65354 c -2.03149,0 -2.51574,0.67322 -2.51574,2.19684 v 2.56299 z m 15.50784,0 v -8.0551 h -1.78346 v 3.28346 h -5.9055 v -3.28346 h -1.79528 v 8.0551 h 1.79528 v -3.21259 h 5.9055 v 3.21259 z m 7.8425,-2.30315 c 2.35038,0 3.02361,-0.53149 3.02361,-2.45668 v -0.69685 c 0,-1.90157 -0.72047,-2.59842 -3.02361,-2.59842 h -6.44881 v 8.0551 h 1.79527 v -2.30315 z m 1.22834,-2.52755 c 0,0.85039 -0.30709,1.0748 -1.25197,1.0748 h -4.62991 v -2.75196 h 4.60629 c 0.9685,0 1.27559,0.24803 1.27559,1.12204 z m 11.51571,4.8307 v -1.53543 h -5.49211 c -1.11024,0 -1.38189,-0.29528 -1.38189,-1.29921 v -2.3622 c 0,-0.99212 0.27165,-1.31102 1.37008,-1.31102 h 5.50392 v -1.54724 h -5.5866 c -2.37401,0 -3.07086,0.73228 -3.07086,2.76377 v 2.52756 c 0,2.03149 0.69685,2.76377 3.07086,2.76377 z"
       id="text2"
       style="font-size:11.811px;font-family:Neuropolitical;-inkscape-font-specification:'Neuropolitical, Normal';stroke-width:0.276819"
       aria-label="Tier 2 HPC" /></g><g
     id="g4"
     style="display:inline"><path
       id="path3"
       style="display:inline;fill:#77b900;fill-opacity:1;stroke-width:0.264583"
       d="m 5.6401905,62.823791 c -1.0526,0 -1.8997215,0.847122 -1.8997215,1.899722 v 31.956181 c 0,1.0526 0.8471215,1.899721 1.8997215,1.899721 H 37.426829 c 1.0526,0 1.900248,-0.847121 1.900248,-1.899721 V 82.623439 l -0.0047,4.211716 c 0,0 -0.119323,-1.031391 -0.761889,-1.19733 -1.531541,-0.395511 -6.452256,3.280347 -8.864511,6.315671 -1.054639,1.327046 -1.732938,6.624606 -2.37813,6.625464 l -6.535863,0.0014 c 0,0 2.970417,-4.320707 3.269433,-5.614858 0.385929,-1.670314 -1.129759,-2.966568 -0.479669,-4.64979 1.08497,-2.80922 15.746127,-7.092824 15.755368,-7.095523 v -16.49668 c 0,-1.0526 -0.847648,-1.899722 -1.900248,-1.899722 z"
       transform="matrix(0.98145208,0,0,0.98145208,1.1280992,-57.805029)" /></g></svg>
