<?xml version="1.0" encoding="UTF-8" standalone="no"?>
<!-- Created with Inkscape (http://www.inkscape.org/) -->

<svg
   width="34.926556mm"
   height="35.093365mm"
   viewBox="0 0 34.926556 35.093365"
   version="1.1"
   id="svg1"
   xmlns="http://www.w3.org/2000/svg"
   xmlns:svg="http://www.w3.org/2000/svg">
  <defs
     id="defs1" />
  <g
     id="layer1"
     transform="translate(-67.204166,-72.760046)">
    <path
       id="path3"
       style="display:inline;fill:#77b900;fill-opacity:1;stroke-width:0.259676"
       d="m 69.068652,72.76042 c -1.033077,0 -1.864486,0.83141 -1.864486,1.864486 v 31.363464 c 0,1.03307 0.831409,1.86448 1.864486,1.86448 h 31.197058 c 1.03308,0 1.86501,-0.83141 1.86501,-1.86448 V 92.192826 l -0.005,4.133597 c 0,0 -0.11711,-1.01226 -0.74775,-1.175122 -1.503138,-0.388175 -6.332584,3.219504 -8.700097,6.198529 -1.035077,1.30243 -1.700795,6.50173 -2.33402,6.50258 l -6.414637,10e-4 c 0,0 2.915322,-4.24057 3.208792,-5.51071 0.378771,-1.63934 -1.108804,-2.911549 -0.470772,-4.563551 1.064846,-2.757115 15.454074,-6.961267 15.463134,-6.963916 v -16.1907 c 0,-1.033077 -0.83192,-1.864487 -1.865,-1.864487 z" />
  </g>
</svg>
